<svg width="58" height="58" viewBox="0 0 58 58" fill="none" xmlns="http://www.w3.org/2000/svg">
<path fill-rule="evenodd" clip-rule="evenodd" d="M5.40771 8.84848C5.40771 5.2651 9.21645 2.96562 12.3875 4.63458L50.1325 24.5004C53.5246 26.2856 53.5246 31.1428 50.1325 32.9283L12.3875 52.794C9.21648 54.463 5.40771 52.1635 5.40771 48.5802V8.84848ZM47.9146 28.7142L39.3796 24.2221L34.5132 28.7142L39.3796 33.2064L47.9146 28.7142ZM34.9084 35.5597L31.003 31.9545L16.7359 45.1242L34.9084 35.5597ZM31.003 25.474L34.9084 21.8689L16.7359 12.3044L31.003 25.474ZM10.1696 12.7238L27.4927 28.7142L10.1696 44.7047V12.7238Z" fill="#573A87"/>
</svg>
