<svg width="59" height="58" viewBox="0 0 59 58" fill="none" xmlns="http://www.w3.org/2000/svg">
<path d="M36.5249 31.5064C37.5501 31.9161 38.0651 33.0961 37.4509 34.0135C36.7501 35.0599 35.8451 35.9628 34.783 36.6637C33.1611 37.734 31.2506 38.2825 29.308 38.2356C27.3654 38.189 25.4837 37.549 23.9151 36.4021C22.8879 35.6506 22.0273 34.7054 21.3778 33.6264C20.8083 32.6804 21.3796 31.5266 22.4234 31.1668C23.4672 30.8071 24.583 31.399 25.2889 32.2478C25.577 32.5942 25.9078 32.9059 26.2754 33.1747C27.1854 33.8402 28.2773 34.2116 29.4042 34.2387C30.5313 34.2659 31.6397 33.9475 32.5806 33.3266C32.9609 33.0756 33.3063 32.7804 33.6106 32.4483C34.3566 31.6342 35.4997 31.0968 36.5249 31.5064Z" fill="#573A87"/>
<path d="M24.7751 21.5719C24.7751 20.2569 23.7091 19.1909 22.3941 19.1909C21.0792 19.1909 20.0132 20.2569 20.0132 21.5719V23.9528C20.0132 25.2678 21.0792 26.3338 22.3941 26.3338C23.7091 26.3338 24.7751 25.2678 24.7751 23.9528V21.5719Z" fill="#573A87"/>
<path d="M39.0607 21.5719C39.0607 20.2569 37.9948 19.1909 36.6798 19.1909C35.3648 19.1909 34.2988 20.2569 34.2988 21.5719V23.9528C34.2988 25.2678 35.3648 26.3338 36.6798 26.3338C37.9948 26.3338 39.0607 25.2678 39.0607 23.9528V21.5719Z" fill="#573A87"/>
<path fill-rule="evenodd" clip-rule="evenodd" d="M5.72754 28.7143C5.72754 15.5647 16.3874 4.90479 29.5371 4.90479C42.6866 4.90479 53.3466 15.5647 53.3466 28.7143C53.3466 41.8638 42.6866 52.5238 29.5371 52.5238C16.3874 52.5238 5.72754 41.8638 5.72754 28.7143ZM29.5371 9.66669C19.0173 9.66669 10.4894 18.1946 10.4894 28.7143C10.4894 39.2341 19.0173 47.7619 29.5371 47.7619C40.0568 47.7619 48.5847 39.2341 48.5847 28.7143C48.5847 18.1946 40.0568 9.66669 29.5371 9.66669Z" fill="#573A87"/>
</svg>
