<svg width="58" height="58" viewBox="0 0 58 58" fill="none" xmlns="http://www.w3.org/2000/svg">
<path d="M9.81006 40.1437V27.4103C9.81006 26.1382 9.81006 25.5018 9.96475 24.9096C10.1018 24.3851 10.3286 23.8886 10.6332 23.44C10.9768 22.9337 11.4544 22.5139 12.4119 21.6761L23.8442 11.6728C25.6191 10.1197 26.5067 9.34313 27.5062 9.04753C28.3877 8.78689 29.3272 8.78689 30.2086 9.04753C31.2089 9.34334 32.0977 10.1207 33.8753 11.6761L45.3039 21.6761C46.2615 22.5139 46.7391 22.9337 47.0829 23.44C47.3874 23.8886 47.6124 24.3851 47.7496 24.9096C47.9041 25.5018 47.9053 26.1382 47.9053 27.4103V40.152C47.9053 42.8137 47.9053 44.1458 47.3867 45.1637C46.9303 46.0596 46.1998 46.7875 45.3039 47.2439C44.2863 47.7625 42.9553 47.7625 40.2936 47.7625H17.4217C14.76 47.7625 13.4272 47.7625 12.4096 47.2439C11.5136 46.7875 10.7856 46.0596 10.3291 45.1637C9.81006 44.1449 9.81006 42.8106 9.81006 40.1437Z" stroke="#573A87" stroke-width="4.7619" stroke-linecap="round" stroke-linejoin="round"/>
</svg>
