<svg width="51" height="51" viewBox="0 0 51 51" fill="none" xmlns="http://www.w3.org/2000/svg">
<path fill-rule="evenodd" clip-rule="evenodd" d="M4.60645 8.30272C4.60645 5.16726 7.93909 3.15522 10.7137 4.61556L43.7406 21.9982C46.7087 23.5602 46.7087 27.8102 43.7406 29.3725L10.7137 46.755C7.93911 48.2155 4.60645 46.2034 4.60645 43.068V8.30272ZM41.8 25.6852L34.3319 21.7546L30.0737 25.6852L34.3319 29.6159L41.8 25.6852ZM30.4196 31.675L27.0023 28.5205L14.5186 40.044L30.4196 31.675ZM27.0023 22.85L30.4196 19.6956L14.5186 11.3266L27.0023 22.85ZM8.77311 11.6936L23.9308 25.6852L8.77311 39.6769V11.6936Z" fill="#573A87"/>
</svg>
