<svg width="194" height="58" viewBox="0 0 194 58" fill="none" xmlns="http://www.w3.org/2000/svg">
<g clip-path="url(#clip0_2564_1516)">
<path fill-rule="evenodd" clip-rule="evenodd" d="M185.997 57.3958H7.43113C3.49295 57.3958 0.285645 54.1753 0.285645 50.2529V7.39579C0.285645 3.4592 3.49295 0.25293 7.43113 0.25293H185.997C189.932 0.25293 193.143 3.4592 193.143 7.39579V50.2529C193.143 54.1753 189.932 57.3958 185.997 57.3958Z" fill="white"/>
<path fill-rule="evenodd" clip-rule="evenodd" d="M185.997 1.3965C189.3 1.3965 192.004 4.09333 192.004 7.39579V50.2529C192.004 53.5554 189.318 56.2522 185.997 56.2522H7.43113C4.12803 56.2522 1.42452 53.5554 1.42452 50.2529V7.39579C1.42452 4.09333 4.11029 1.3965 7.43113 1.3965H185.997ZM185.997 0.25293H7.43113C3.49295 0.25293 0.285645 3.47345 0.285645 7.39579V50.2529C0.285645 54.1895 3.49295 57.3958 7.43113 57.3958H185.997C189.932 57.3958 193.143 54.1895 193.143 50.2529V7.39579C193.143 3.47345 189.932 0.25293 185.997 0.25293Z" fill="white"/>
<path d="M101.884 19.1556C100.596 19.1556 99.5101 18.7031 98.6515 17.8125C97.8 16.9468 97.3246 15.7534 97.3458 14.535C97.3458 13.2347 97.7858 12.1339 98.6515 11.261C99.5065 10.3704 100.592 9.91797 101.88 9.91797C103.154 9.91797 104.239 10.3704 105.112 11.261C105.978 12.1624 106.418 13.2632 106.418 14.535C106.404 15.8389 105.964 16.9397 105.112 17.809C104.257 18.7067 103.171 19.1556 101.884 19.1556ZM63.5629 19.1556C62.3034 19.1556 61.2106 18.7103 60.3166 17.8303C59.4296 16.9539 58.979 15.846 58.979 14.5386C58.979 13.2311 59.4296 12.1232 60.3166 11.2468C61.1929 10.3668 62.2856 9.92153 63.5629 9.92153C64.1873 9.92153 64.794 10.0462 65.3758 10.2992C65.947 10.545 66.4118 10.8798 66.756 11.2895L66.8411 11.3929L65.8796 12.3405L65.7803 12.2229C65.2375 11.5745 64.5102 11.2575 63.5487 11.2575C62.6901 11.2575 61.9415 11.5639 61.3242 12.1695C60.7033 12.7787 60.3875 13.5767 60.3875 14.5421C60.3875 15.5076 60.7033 16.3056 61.3242 16.9148C61.9415 17.5204 62.6901 17.8268 63.5487 17.8268C64.464 17.8268 65.2339 17.5204 65.8335 16.9148C66.1883 16.5585 66.4083 16.0598 66.4863 15.4292H63.4032V14.0968H67.8097L67.8274 14.2179C67.8594 14.4424 67.8913 14.6739 67.8913 14.8877C67.8913 16.1168 67.5223 17.1107 66.7914 17.8446C65.9612 18.7138 64.8756 19.1556 63.5629 19.1556ZM114.514 18.9668H113.155L108.994 12.2799L109.029 13.4841V18.9632H107.67V10.1103H109.221L109.263 10.178L113.177 16.4766L113.141 15.276V10.1103H114.514V18.9668ZM91.6728 18.9668H90.2962V11.4427H87.9085V10.1103H94.0569V11.4427H91.6692V18.9668H91.6728ZM86.7873 18.9668H85.4143V10.1103H86.7873V18.9668ZM79.0707 18.9668H77.6976V11.4427H75.3099V10.1103H81.4584V11.4427H79.0707V18.9668ZM74.4407 18.9525H69.1756V10.1103H74.4407V11.4427H70.5522V13.8724H74.0611V15.1905H70.5522V17.6201H74.4407V18.9525ZM99.6591 16.8969C100.273 17.5133 101.018 17.8232 101.884 17.8232C102.774 17.8232 103.501 17.5204 104.108 16.8969C104.711 16.2913 105.016 15.4969 105.016 14.5386C105.016 13.5802 104.711 12.7822 104.112 12.1802C103.498 11.5639 102.749 11.2539 101.887 11.2539C100.997 11.2539 100.269 11.5567 99.6662 12.1802C99.063 12.7858 98.7579 13.5802 98.7579 14.5386C98.7579 15.4969 99.0595 16.2949 99.6591 16.8969Z" fill="black"/>
<path fill-rule="evenodd" clip-rule="evenodd" d="M97.2185 31.3324C93.8657 31.3324 91.148 33.8867 91.148 37.41C91.148 40.9013 93.8835 43.4877 97.2185 43.4877C100.571 43.4877 103.289 40.9156 103.289 37.41C103.289 33.8867 100.571 31.3324 97.2185 31.3324ZM97.2185 41.0794C95.3842 41.0794 93.8054 39.5547 93.8054 37.3958C93.8054 35.2048 95.3878 33.7121 97.2185 33.7121C99.0528 33.7121 100.632 35.2048 100.632 37.3958C100.635 39.5689 99.0528 41.0794 97.2185 41.0794ZM83.9742 31.3324C80.6214 31.3324 77.9037 33.8867 77.9037 37.41C77.9037 40.9013 80.6391 43.4877 83.9742 43.4877C87.3269 43.4877 90.0446 40.9156 90.0446 37.41C90.0446 33.8867 87.3234 31.3324 83.9742 31.3324ZM83.9742 41.0794C82.1399 41.0794 80.5611 39.5547 80.5611 37.3958C80.5611 35.2048 82.1434 33.7121 83.9742 33.7121C85.8084 33.7121 87.3872 35.2048 87.3872 37.3958C87.3872 39.5689 85.8084 41.0794 83.9742 41.0794ZM68.2143 33.1885V35.7606H74.3629C74.1748 37.2034 73.6994 38.2686 72.9721 38.9989C72.0709 39.9038 70.6801 40.8871 68.2285 40.8871C64.45 40.8871 61.4946 37.8233 61.4946 34.0292C61.4946 30.2351 64.45 27.1714 68.2285 27.1714C70.2686 27.1714 71.7551 27.98 72.8585 29.0132L74.6751 27.1892C73.1424 25.7143 71.1023 24.585 68.2427 24.585C63.0592 24.585 58.7095 28.8244 58.7095 34.015C58.7095 39.2198 63.0557 43.445 68.2427 43.445C71.042 43.445 73.1424 42.5258 74.8028 40.7944C76.4952 39.0951 77.0309 36.6975 77.0309 34.7631C77.0309 34.161 76.9848 33.6195 76.889 33.16H68.2108C68.2143 33.1564 68.2143 33.1885 68.2143 33.1885ZM132.676 35.1906C132.169 33.8261 130.636 31.3181 127.493 31.3181C124.378 31.3181 121.788 33.7798 121.788 37.3958C121.788 40.8087 124.349 43.4734 127.794 43.4734C130.562 43.4734 132.173 41.7741 132.836 40.7766L130.782 39.3944C130.101 40.4097 129.153 41.0759 127.809 41.0759C126.45 41.0759 125.499 40.456 124.867 39.234L132.96 35.8675C132.96 35.871 132.676 35.1906 132.676 35.1906ZM124.424 37.2212C124.36 34.8735 126.24 33.6801 127.585 33.6801C128.646 33.6801 129.529 34.2038 129.831 34.9661L124.424 37.2212ZM117.85 43.1101H120.507V25.2547H117.85V43.1101ZM113.486 32.6826H113.39C112.79 31.9665 111.651 31.3181 110.197 31.3181C107.177 31.3181 104.396 33.9865 104.396 37.4136C104.396 40.8265 107.163 43.4628 110.197 43.4628C111.634 43.4628 112.79 42.8108 113.39 42.0805H113.486V42.9533C113.486 45.2725 112.251 46.523 110.261 46.523C108.632 46.523 107.621 45.3473 107.209 44.3641L104.9 45.3331C105.563 46.9362 107.334 48.9205 110.257 48.9205C113.372 48.9205 116.012 47.0787 116.012 42.5864V31.6815H113.5V32.6826C113.503 32.6826 113.486 32.6826 113.486 32.6826ZM110.434 41.0794C108.6 41.0794 107.068 39.5404 107.068 37.4136C107.068 35.269 108.6 33.7157 110.434 33.7157C112.251 33.7157 113.66 35.2868 113.66 37.4136C113.677 39.5404 112.255 41.0794 110.434 41.0794ZM145.119 25.2547H138.765V43.1101H141.422V36.3484H145.122C148.064 36.3484 150.955 34.2073 150.955 30.8087C150.955 27.41 148.074 25.2547 145.119 25.2547ZM145.197 33.8546H141.418V27.7271H145.197C147.187 27.7271 148.312 29.3766 148.312 30.7909C148.312 32.1909 147.173 33.8546 145.197 33.8546ZM161.606 31.3003C159.676 31.3003 157.686 32.1589 156.862 34.0292L159.218 35.0125C159.726 34.0292 160.655 33.6943 161.638 33.6943C163.015 33.6943 164.405 34.5208 164.437 35.9957V36.1845C163.962 35.9138 162.919 35.5005 161.67 35.5005C159.126 35.5005 156.547 36.897 156.547 39.5155C156.547 41.9131 158.633 43.4521 160.957 43.4521C162.741 43.4521 163.724 42.6434 164.338 41.7064H164.434V43.0887H166.995V36.2487C166.995 33.0638 164.639 31.3003 161.606 31.3003ZM161.273 41.0794C160.403 41.0794 159.186 40.6519 159.186 39.5547C159.186 38.1724 160.705 37.6487 162 37.6487C163.171 37.6487 163.724 37.9017 164.42 38.2508C164.228 39.8539 162.88 41.0652 161.273 41.0794ZM176.341 31.6815L173.289 39.4264H173.194L170.032 31.6815H167.173L171.916 42.508L169.213 48.5251H171.98L179.278 31.6815H176.341ZM152.42 43.1101H155.078V25.2547H152.42V43.1101Z" fill="black"/>
<path fill-rule="evenodd" clip-rule="evenodd" d="M15.1302 11.0146C14.7187 11.46 14.481 12.1404 14.481 13.031V44.6199C14.481 45.5105 14.7187 46.191 15.1444 46.6185L15.2544 46.7147L32.8804 29.0161V28.6206L15.2402 10.9185L15.1302 11.0146Z" fill="url(#paint0_linear_2564_1516)"/>
<path fill-rule="evenodd" clip-rule="evenodd" d="M38.7446 34.9343L32.8657 29.0312V28.6179L38.7446 22.7148L38.8724 22.7932L45.8263 26.7619C47.8167 27.8876 47.8167 29.7473 45.8263 30.8873L38.8724 34.8559L38.7446 34.9343Z" fill="url(#paint1_linear_2564_1516)"/>
<path fill-rule="evenodd" clip-rule="evenodd" d="M38.873 34.8556L32.8664 28.8242L15.1304 46.6333C15.7796 47.3315 16.8688 47.4099 18.0858 46.7295L38.873 34.8556Z" fill="url(#paint2_linear_2564_1516)"/>
<path fill-rule="evenodd" clip-rule="evenodd" d="M38.873 22.7926L18.0858 10.9366C16.8688 10.2383 15.7761 10.3345 15.1304 11.0328L32.8664 28.824L38.873 22.7926Z" fill="url(#paint3_linear_2564_1516)"/>
<path opacity="0.2" fill-rule="evenodd" clip-rule="evenodd" d="M38.7453 34.7271L18.1 46.5047C16.9469 47.1709 15.918 47.1246 15.2545 46.519L15.1445 46.6294L15.2545 46.7256C15.918 47.3277 16.9469 47.3775 18.1 46.7113L38.8873 34.8553L38.7453 34.7271Z" fill="white"/>
<path opacity="0.12" fill-rule="evenodd" clip-rule="evenodd" d="M45.8264 30.6803L38.7271 34.7273L38.8548 34.8556L45.8087 30.8869C46.8056 30.3169 47.2952 29.5688 47.2952 28.8242C47.2349 29.5082 46.7276 30.1566 45.8264 30.6803Z" fill="white"/>
<path opacity="0.25" fill-rule="evenodd" clip-rule="evenodd" d="M18.0856 11.1436L45.8267 26.9683C46.7279 27.4777 47.2352 28.1439 47.3133 28.8244C47.3133 28.0798 46.8237 27.3317 45.8267 26.7617L18.0856 10.9369C16.0953 9.79336 14.481 10.7481 14.481 13.0317V13.2383C14.481 10.9512 16.0953 10.0142 18.0856 11.1436Z" fill="black"/>
</g>
<defs>
<linearGradient id="paint0_linear_2564_1516" x1="31.2994" y1="12.6902" x2="3.05023" y2="20.1864" gradientUnits="userSpaceOnUse">
<stop stop-color="#00A0FF"/>
<stop offset="0.00657" stop-color="#00A1FF"/>
<stop offset="0.2601" stop-color="#00BEFF"/>
<stop offset="0.5122" stop-color="#00D2FF"/>
<stop offset="0.7604" stop-color="#00DFFF"/>
<stop offset="1" stop-color="#00E3FF"/>
</linearGradient>
<linearGradient id="paint1_linear_2564_1516" x1="48.4219" y1="28.8246" x2="13.9966" y2="28.8246" gradientUnits="userSpaceOnUse">
<stop stop-color="#FFE000"/>
<stop offset="0.4087" stop-color="#FFBD00"/>
<stop offset="0.7754" stop-color="#FFA500"/>
<stop offset="1" stop-color="#FF9C00"/>
</linearGradient>
<linearGradient id="paint2_linear_2564_1516" x1="35.6068" y1="32.1061" x2="12.8029" y2="70.3297" gradientUnits="userSpaceOnUse">
<stop stop-color="#FF3A44"/>
<stop offset="1" stop-color="#C31162"/>
</linearGradient>
<linearGradient id="paint3_linear_2564_1516" x1="10.6643" y1="0.507982" x2="20.838" y2="17.5793" gradientUnits="userSpaceOnUse">
<stop stop-color="#32A071"/>
<stop offset="0.0685" stop-color="#2DA771"/>
<stop offset="0.4762" stop-color="#15CF74"/>
<stop offset="0.8009" stop-color="#06E775"/>
<stop offset="1" stop-color="#00F076"/>
</linearGradient>
<clipPath id="clip0_2564_1516">
<rect width="192.857" height="57.1429" fill="white" transform="translate(0.285645 0.25293)"/>
</clipPath>
</defs>
</svg>
