<svg width="50" height="51" viewBox="0 0 50 51" fill="none" xmlns="http://www.w3.org/2000/svg">
<path d="M8.3335 35.6858V24.5442C8.3335 23.431 8.3335 22.8742 8.46885 22.356C8.58881 21.8971 8.78722 21.4626 9.0537 21.0701C9.35441 20.6271 9.77233 20.2598 10.6101 19.5267L20.6134 10.7738C22.1664 9.41488 22.9431 8.73536 23.8177 8.47671C24.5889 8.24865 25.411 8.24865 26.1822 8.47671C27.0575 8.73554 27.8352 9.41571 29.3906 10.7767L39.3906 19.5267C40.2285 20.2598 40.6464 20.6271 40.9472 21.0701C41.2137 21.4626 41.4106 21.8971 41.5306 22.356C41.6658 22.8742 41.6668 23.431 41.6668 24.5442V35.6931C41.6668 38.0221 41.6668 39.1877 41.2131 40.0783C40.8137 40.8623 40.1745 41.4992 39.3906 41.8985C38.5002 42.3523 37.3356 42.3523 35.0066 42.3523H14.9937C12.6647 42.3523 11.4985 42.3523 10.6081 41.8985C9.82406 41.4992 9.1871 40.8623 8.78764 40.0783C8.3335 39.1869 8.3335 38.0194 8.3335 35.6858Z" stroke="#573A87" stroke-width="4.16667" stroke-linecap="round" stroke-linejoin="round"/>
</svg>
