<svg width="33" height="33" viewBox="0 0 33 33" fill="none" xmlns="http://www.w3.org/2000/svg">
<path d="M28.8569 22.2176V26.9322C28.8571 27.2698 28.7292 27.5949 28.4991 27.8418C28.2689 28.0888 27.9537 28.2393 27.6169 28.2629C27.0343 28.3029 26.5583 28.3242 26.1903 28.3242C14.4076 28.3242 4.85693 18.7736 4.85693 6.99089C4.85693 6.62289 4.87693 6.14689 4.91827 5.56422C4.9419 5.22748 5.09238 4.91223 5.33934 4.6821C5.5863 4.45196 5.91136 4.32407 6.24893 4.32422H10.9636C11.129 4.32405 11.2885 4.38536 11.4112 4.49625C11.5339 4.60713 11.6111 4.75966 11.6276 4.92422C11.6583 5.23089 11.6863 5.47489 11.7129 5.66022C11.9779 7.50945 12.5209 9.308 13.3236 10.9949C13.4503 11.2616 13.3676 11.5802 13.1276 11.7509L10.2503 13.8069C12.0095 17.9062 15.2763 21.1729 19.3756 22.9322L21.4289 20.0602C21.5129 19.9429 21.6353 19.8587 21.7749 19.8224C21.9145 19.7861 22.0625 19.8 22.1929 19.8616C23.8796 20.6627 25.6777 21.2044 27.5263 21.4682C27.7116 21.4949 27.9556 21.5242 28.2596 21.5536C28.4239 21.5704 28.5761 21.6476 28.6867 21.7703C28.7973 21.893 28.8585 22.0524 28.8583 22.2176H28.8569Z" fill="#573A87"/>
</svg>
