<svg width="40" height="40" viewBox="0 0 40 40" fill="none" xmlns="http://www.w3.org/2000/svg">
<path d="M16.9419 33.1343H10.3887V36.4109H7.11206V33.1343H5.47376C5.03925 33.1343 4.62254 32.9617 4.3153 32.6544C4.00806 32.3472 3.83545 31.9305 3.83545 31.496V6.92139C3.83545 6.48688 4.00806 6.07018 4.3153 5.76293C4.62254 5.45569 5.03925 5.28308 5.47376 5.28308H16.9419V2.97307C16.942 2.85417 16.9679 2.73669 17.0179 2.62882C17.0679 2.52095 17.1409 2.42526 17.2316 2.34841C17.3223 2.27155 17.4287 2.21537 17.5433 2.18376C17.658 2.15216 17.7781 2.14589 17.8954 2.16539L35.2319 5.05536C35.6145 5.11896 35.9621 5.3162 36.2129 5.61198C36.4637 5.90777 36.6014 6.28293 36.6016 6.67073V10.198H38.2399V13.4746H36.6016V24.9428H38.2399V28.2194H36.6016V31.7466C36.6014 32.1344 36.4637 32.5096 36.2129 32.8054C35.9621 33.1012 35.6145 33.2984 35.2319 33.362L33.325 33.6798V36.4109H30.0483V34.227L17.8954 36.252C17.7781 36.2715 17.658 36.2652 17.5433 36.2336C17.4287 36.202 17.3223 36.1458 17.2316 36.069C17.1409 35.9921 17.0679 35.8964 17.0179 35.7886C16.9679 35.6807 16.942 35.5632 16.9419 35.4443V33.1343ZM20.2185 32.5445L33.325 30.359V8.05837L20.2185 5.87451V32.5429V32.5445ZM27.5909 23.3045C26.2344 23.3045 25.1334 21.4695 25.1334 19.2087C25.1334 16.9478 26.2344 15.1129 27.5909 15.1129C28.9474 15.1129 30.0483 16.9478 30.0483 19.2087C30.0483 21.4695 28.9474 23.3045 27.5909 23.3045Z" fill="#573A87"/>
</svg>
