<svg width="41" height="40" viewBox="0 0 41 40" fill="none" xmlns="http://www.w3.org/2000/svg">
<path d="M12.2805 6.64575V32.8586H28.6636V6.64575H12.2805ZM10.6422 3.36914H30.3019C30.7364 3.36914 31.1531 3.54175 31.4603 3.84899C31.7676 4.15623 31.9402 4.57294 31.9402 5.00745V34.497C31.9402 34.9315 31.7676 35.3482 31.4603 35.6554C31.1531 35.9627 30.7364 36.1353 30.3019 36.1353H10.6422C10.2077 36.1353 9.791 35.9627 9.48376 35.6554C9.17651 35.3482 9.00391 34.9315 9.00391 34.497V5.00745C9.00391 4.57294 9.17651 4.15623 9.48376 3.84899C9.791 3.54175 10.2077 3.36914 10.6422 3.36914ZM20.472 27.9437C20.9066 27.9437 21.3233 28.1163 21.6305 28.4236C21.9377 28.7308 22.1104 29.1475 22.1104 29.582C22.1104 30.0165 21.9377 30.4333 21.6305 30.7405C21.3233 31.0477 20.9066 31.2203 20.472 31.2203C20.0375 31.2203 19.6208 31.0477 19.3136 30.7405C19.0063 30.4333 18.8337 30.0165 18.8337 29.582C18.8337 29.1475 19.0063 28.7308 19.3136 28.4236C19.6208 28.1163 20.0375 27.9437 20.472 27.9437Z" fill="#573A87"/>
</svg>
