<svg width="51" height="51" viewBox="0 0 51 51" fill="none" xmlns="http://www.w3.org/2000/svg">
<path d="M31.8339 28.1282C32.7309 28.4868 33.1816 29.5193 32.6441 30.322C32.0309 31.2376 31.2391 32.0276 30.3097 32.6409C28.8905 33.5774 27.2189 34.0574 25.5191 34.0164C23.8193 33.9755 22.1728 33.4155 20.8003 32.412C19.9015 31.7545 19.1484 30.9274 18.5801 29.9832C18.0819 29.1555 18.5817 28.1459 19.495 27.8312C20.4084 27.5164 21.3847 28.0343 22.0024 28.777C22.2545 29.0801 22.5439 29.3528 22.8655 29.588C23.6618 30.1703 24.6172 30.4953 25.6032 30.5191C26.5895 30.5428 27.5593 30.2643 28.3826 29.7209C28.7153 29.5014 29.0176 29.243 29.2839 28.9524C29.9366 28.2401 30.9368 27.7699 31.8339 28.1282Z" fill="#573A87"/>
<path d="M21.5529 19.4354C21.5529 18.2848 20.6201 17.3521 19.4696 17.3521C18.319 17.3521 17.3862 18.2848 17.3862 19.4354V21.5187C17.3862 22.6693 18.319 23.6021 19.4696 23.6021C20.6201 23.6021 21.5529 22.6693 21.5529 21.5187V19.4354Z" fill="#573A87"/>
<path d="M34.0529 19.4354C34.0529 18.2848 33.1202 17.3521 31.9696 17.3521C30.8189 17.3521 29.8862 18.2848 29.8862 19.4354V21.5187C29.8862 22.6693 30.8189 23.6021 31.9696 23.6021C33.1202 23.6021 34.0529 22.6693 34.0529 21.5187V19.4354Z" fill="#573A87"/>
<path fill-rule="evenodd" clip-rule="evenodd" d="M4.88623 25.6854C4.88623 14.1794 14.2136 4.85205 25.7196 4.85205C37.2254 4.85205 46.5529 14.1794 46.5529 25.6854C46.5529 37.1912 37.2254 46.5187 25.7196 46.5187C14.2136 46.5187 4.88623 37.1912 4.88623 25.6854ZM25.7196 9.01872C16.5148 9.01872 9.0529 16.4806 9.0529 25.6854C9.0529 34.8902 16.5148 42.3521 25.7196 42.3521C34.9244 42.3521 42.3862 34.8902 42.3862 25.6854C42.3862 16.4806 34.9244 9.01872 25.7196 9.01872Z" fill="#573A87"/>
</svg>
